<?xml version="1.0" encoding="UTF-8" standalone="no"?>
<!-- Created with Inkscape (http://www.inkscape.org/) -->

<svg
   xmlns:dc="http://purl.org/dc/elements/1.1/"
   xmlns:cc="http://creativecommons.org/ns#"
   xmlns:rdf="http://www.w3.org/1999/02/22-rdf-syntax-ns#"
   xmlns:svg="http://www.w3.org/2000/svg"
   xmlns="http://www.w3.org/2000/svg"
   xmlns:sodipodi="http://sodipodi.sourceforge.net/DTD/sodipodi-0.dtd"
   xmlns:inkscape="http://www.inkscape.org/namespaces/inkscape"
   width="64px"
   height="64px"
   id="svg3006"
   version="1.1"
   inkscape:version="0.48.3.1 r9886"
   sodipodi:docname="bench.svg">
  <defs
     id="defs3008" />
  <sodipodi:namedview
     id="base"
     pagecolor="#ffffff"
     bordercolor="#666666"
     borderopacity="1.0"
     inkscape:pageopacity="0.0"
     inkscape:pageshadow="2"
     inkscape:zoom="7.7781746"
     inkscape:cx="27.694509"
     inkscape:cy="32"
     inkscape:current-layer="layer1"
     showgrid="true"
     inkscape:document-units="px"
     inkscape:grid-bbox="true"
     inkscape:window-width="1366"
     inkscape:window-height="721"
     inkscape:window-x="-2"
     inkscape:window-y="-3"
     inkscape:window-maximized="1" />
  <metadata
     id="metadata3011">
    <rdf:RDF>
      <cc:Work
         rdf:about="">
        <dc:format>image/svg+xml</dc:format>
        <dc:type
           rdf:resource="http://purl.org/dc/dcmitype/StillImage" />
        <dc:title></dc:title>
      </cc:Work>
    </rdf:RDF>
  </metadata>
  <g
     id="layer1"
     inkscape:label="Layer 1"
     inkscape:groupmode="layer">
    <g
       id="g3023"
       transform="matrix(0,1,-1,0,63.742869,17.845212)">
      <path
         sodipodi:nodetypes="ccccc"
         inkscape:connector-curvature="0"
         id="path3856"
         d="m 27.027128,55.262754 c 0,0 -1.414214,8.356717 4.435488,3.599816 20.248967,-36.512422 7.911308,-40.206378 7.911308,-40.206378 -12.732491,-4.534196 -14.596681,3.436826 -14.596681,3.436826 0,0 16.134891,3.214122 2.249885,33.169736 z"
         style="fill:#ff0000;stroke:#000000;stroke-width:1px;stroke-linecap:butt;stroke-linejoin:miter;stroke-opacity:1" />
      <path
         id="path3870"
         d="m 23.931879,3.3908601 c -3.5,0.454546 -2.65625,2.21875 -2.65625,2.21875 4.901161,-0.116003 5.924878,3.679821 6.03125,6.4374999 -4.71907,2.451337 -6.084994,8.517221 -3.8125,11.125 0,0 4.045454,-11.565341 17.5,-4.65625 0,0 -2.548296,-8.136364 -10.09375,-7.5 -0.578672,0.0488 -1.1043,0.179116 -1.625,0.3125 -0.745017,-6.8865689 -5.34375,-7.9374999 -5.34375,-7.9374999 z"
         style="fill:#00ff00;stroke:#000000;stroke-width:1px;stroke-linecap:butt;stroke-linejoin:miter;stroke-opacity:1"
         inkscape:connector-curvature="0" />
    </g>
    <path
       style="fill:#b3b3b3;stroke:#000000;stroke-width:0.75822318000000000;stroke-miterlimit:4;stroke-opacity:1;stroke-dasharray:none"
       d="M 25.75 1.125 L 25.75 31.84375 L 59.53125 31.84375 L 59.53125 1.125 L 25.75 1.125 z M 27.46875 3 L 57.375 3 L 57.375 25.75 L 27.46875 25.75 L 27.46875 3 z "
       id="rect3027" />
    <path
       style="fill:none;stroke:#ff0000;stroke-width:1.5;stroke-linecap:butt;stroke-linejoin:miter;stroke-opacity:1;stroke-miterlimit:4;stroke-dasharray:none"
       d="m 29.31279,13.988266 c 7.071067,-17.7419521 13.113616,-0.128565 13.113616,-0.128565 0,0 6.171114,19.927556 11.570838,-0.25713"
       id="path3797"
       inkscape:connector-curvature="0"
       sodipodi:nodetypes="ccc" />
    <path
       style="fill:#666666;stroke:#666666;stroke-width:1px;stroke-linecap:butt;stroke-linejoin:miter;stroke-opacity:1"
       d="m 2.3141676,22.730677 14.9135244,24.55589 2.442733,0.25713 0.385695,-2.442733 -14.9135252,-24.04163 z"
       id="path3817"
       inkscape:connector-curvature="0" />
    <path
       style="fill:none;stroke:#000000;stroke-width:1px;stroke-linecap:butt;stroke-linejoin:miter;stroke-opacity:1"
       d="m 3.5998163,21.573593 c 0,0 0.8999541,-23.3988061 21.7274627,-13.2421815"
       id="path3819"
       inkscape:connector-curvature="0"
       sodipodi:nodetypes="cc" />
  </g>
</svg>
